<?xml version="1.0" encoding="UTF-8"?>
<svg xmlns="http://www.w3.org/2000/svg" width="1200" height="600" viewBox="0 0 1200 600" role="img" aria-labelledby="svg-title svg-desc">
  <title id="svg-title">Predictive uncertainty</title><desc id="svg-desc">Mean prediction, confidence band, and observations</desc>
  <defs>
    <marker id="arrow" viewBox="0 0 10 10" refX="9" refY="5" markerWidth="8" markerHeight="8" orient="auto-start-reverse"><path d="M0 0L10 5L0 10Z" fill="#34445f"/></marker>
    <marker id="arrow-blue" viewBox="0 0 10 10" refX="9" refY="5" markerWidth="8" markerHeight="8" orient="auto-start-reverse"><path d="M0 0L10 5L0 10Z" fill="#3972d5"/></marker>
    <marker id="arrow-violet" viewBox="0 0 10 10" refX="9" refY="5" markerWidth="8" markerHeight="8" orient="auto-start-reverse"><path d="M0 0L10 5L0 10Z" fill="#7354cf"/></marker>
    <linearGradient id="soft-gradient" x1="0" y1="0" x2="1" y2="1"><stop offset="0" stop-color="#eaf2ff"/><stop offset="1" stop-color="#f1edff"/></linearGradient>
    <style>
    .bg{fill:#fbfcff}.title{font:700 30px Inter,Arial,sans-serif;fill:#17233b}.subtitle{font:400 15px Inter,Arial,sans-serif;fill:#66758f}
    .label{font:500 19px Inter,Arial,sans-serif;fill:#263550}.strong{font-weight:700}.small{font:500 15px Inter,Arial,sans-serif}.tiny{font:500 13px Inter,Arial,sans-serif}.muted{fill:#66758f}
    .card{stroke-width:2.5}.blue{fill:#eaf2ff;stroke:#3972d5}.violet{fill:#f1edff;stroke:#7354cf}.red{fill:#fff0f0;stroke:#dc5963}.gold{fill:#fff7e6;stroke:#d3a23f}.green{fill:#eaf8f2;stroke:#38a479}.slate{fill:#f2f5f9;stroke:#72819a}.cyan{fill:#e9f9fb;stroke:#2b9aa5}
    .wire{fill:none;stroke:#34445f;stroke-width:3.5;stroke-linecap:round;stroke-linejoin:round}.wire2{fill:none;stroke:#3972d5;stroke-width:5;stroke-linecap:round;stroke-linejoin:round}.violet-line{fill:none;stroke:#7354cf;stroke-width:5;stroke-linecap:round;stroke-linejoin:round}.red-line{fill:none;stroke:#dc5963;stroke-width:5;stroke-linecap:round;stroke-linejoin:round}.green-line{fill:none;stroke:#38a479;stroke-width:5;stroke-linecap:round;stroke-linejoin:round}.dash{stroke-dasharray:10 9}
    .axis{fill:none;stroke:#8b98ac;stroke-width:2}.grid{stroke:#dce3ed;stroke-width:1.5}.node{fill:#fff;stroke:#34445f;stroke-width:3}.dot-blue{fill:#3972d5}.dot-violet{fill:#7354cf}.dot-red{fill:#dc5963}.dot-green{fill:#38a479}.paper-note{font:600 12px Inter,Arial,sans-serif;fill:#7354cf;letter-spacing:.06em}
    </style>
  </defs>
  <rect class="bg" width="1200" height="600"/>
  <g id="figure-body" transform="translate(0,-65)"><line x1="115" y1="530" x2="1080" y2="530" class="axis" /><line x1="115" y1="530" x2="115" y2="145" class="axis" /><text x="600" y="585" class="small muted" text-anchor="middle" >input / time</text><text x="45" y="330" class="small muted" text-anchor="middle" transform="rotate(-90 45 330)">prediction</text><g id="confidence-band" >
<path d="M130,405 C300,210 500,175 680,250 C830,315 940,230 1060,180 L1060,360 C930,390 830,420 680,390 C500,340 300,470 130,500 Z" class="wire" fill="#7354cf" fill-opacity=".14" stroke="none"/>
</g><path d="M130,450 C300,280 500,240 680,315 C830,370 940,300 1060,260" class="violet-line" /><g id="observations" >
<circle cx="170" cy="440" r="7" class="dot-blue" />
<circle cx="260" cy="340" r="7" class="dot-blue" />
<circle cx="345" cy="310" r="7" class="dot-blue" />
<circle cx="455" cy="255" r="7" class="dot-blue" />
<circle cx="570" cy="295" r="7" class="dot-blue" />
<circle cx="700" cy="330" r="7" class="dot-blue" />
<circle cx="820" cy="350" r="7" class="dot-blue" />
<circle cx="930" cy="295" r="7" class="dot-blue" />
<circle cx="1030" cy="250" r="7" class="dot-blue" />
</g></g>
</svg>
